<?xml version="1.0" encoding="utf-8"?>
<!-- Generator: Adobe Illustrator 21.1.0, SVG Export Plug-In . SVG Version: 6.00 Build 0)  -->
<svg version="1.1" id="image" xmlns="http://www.w3.org/2000/svg" xmlns:xlink="http://www.w3.org/1999/xlink" x="0px" y="0px"
	 viewBox="0 0 937.2 1000" style="enable-background:new 0 0 937.2 1000;" xml:space="preserve">
<style type="text/css">
	.st0{fill:#DCEFFF;}
	.st1{fill:#918093;}
	.st2{fill:#6B5E6D;}
	.st3{fill:#BC4073;}
	.st4{fill:#15253D;}
	.st5{fill:#894E4E;}
	.st6{fill:#915350;}
	.st7{fill:#CEAB8B;}
	.st8{fill:#E1EAF4;}
	.st9{fill:#E5C2A5;}
	.st10{fill:#BC9A7E;}
	.st11{fill:#513554;}
	.st12{fill:#A8C4E5;}
	.st13{fill:#E9F5FF;}
	.st14{fill:#A33467;}
	.st15{fill:#D84177;}
	.st16{fill:#FFFFFF;}
	.st17{fill:#FFAA82;}
	.st18{fill:#8585FF;}
	.st19{fill:#7878EA;}
	.st20{fill:#B3B3FF;}
	.st21{fill:#A1A1E5;}
	.st22{fill:#565682;}
	.st23{fill:#6B6B9B;}
	.st24{fill:#45446C;}
	.st25{fill:#56547F;}
	.st26{fill:#46466B;}
	.st27{fill:#FCFEFF;}
	.st28{fill:url(#SVGID_1_);}
	.st29{fill:url(#SVGID_2_);}
	.st30{fill:#B2D0ED;}
	.st31{fill:#8DB0DA;}
	.st32{fill:#97CBFF;}
	.st33{fill:#87A6C4;}
	.st34{fill:#7694AD;}
	.st35{fill:#93B5D1;}
	.st36{fill:#353559;}
	.st37{fill:#27E0C0;}
	.st38{fill:#8AACCE;}
	.st39{fill:#B5CFEA;}
	.st40{fill:url(#SVGID_3_);}
	.st41{opacity:0.29;}
	.st42{fill:url(#SVGID_4_);}
	.st43{fill:#6F6F9E;}
	.st44{opacity:0.28;fill:#FFFFFF;}
	.st45{opacity:0.46;fill:#FFFFFF;}
	.st46{fill:#492817;}
	.st47{fill:#DD4078;}
	.st48{fill:#EF487C;}
	.st49{fill:url(#SVGID_5_);}
	.st50{fill:url(#SVGID_6_);}
	.st51{opacity:0.32;fill:#7474A3;}
	.st52{opacity:0.47;fill:#8585FF;}
	.st53{fill:#22C6A6;}
	.st54{opacity:0.36;fill:#27E0C0;}
	.st55{fill:#F1A32F;}
	.st56{fill:#FFD22D;}
	.st57{opacity:0.36;fill:#FFD22D;}
</style>
<path class="st0" d="M557.4,944.9L154.9,708.3c-21.5-12.4-21.6-27.6-0.2-40.2l227.8-134.9l440.6,254.4L557.4,944.9z"/>
<path class="st1" d="M824.5,799l1.2-0.2c3.5-0.5,6-3.8,5.4-7.3L802,594.9c-0.5-3.5-3.8-6-7.3-5.4l-1.2,0.2c-3.5,0.5-6,3.8-5.4,7.3
	l29.2,196.6C817.7,797.1,821,799.5,824.5,799z"/>
<path class="st1" d="M552.1,963.5L552.1,963.5c-3.8-0.3-6.7-3.7-6.3-7.5l27.4-318c0.3-3.8,3.7-6.7,7.5-6.3h0
	c3.8,0.3,6.7,3.7,6.3,7.5l-27.4,318C559.4,960.9,556,963.8,552.1,963.5z"/>
<polygon class="st2" points="574.4,786.3 561.1,777.2 564.9,739 579.1,741.3 "/>
<polygon class="st2" points="799.5,673.9 812.1,663.9 805.6,626 791.7,629.2 "/>
<polygon class="st0" points="128.5,840.7 368.3,714.9 499.5,790.6 259.7,916.5 "/>
<path class="st3" d="M290.9,760.7l-135.3-78.1c-12.5-7.2-7.5-23.1,11.3-35.3l48.6-31.6c18.7-12.2,94.5-20.6,107-13.3l84.7,52.1
	c12.5,7.2,7.9,53.5-10.9,65.7l-48.6,31.6C329,763.9,303.4,767.9,290.9,760.7z"/>
<g>
	<path class="st4" d="M382.6,769.4c-0.8,0.6-12.8,5.8-13.5,6.4c-1.2,0.9-4.7,3.4-6.8,4.8c-4.4,2.8-14,14-28.2,5
		c-20.8-13.2,32.2-44.5,32.2-44.5l23.3-10.6c2.8-1.3,6.2-1.1,8.9,0.5h0c5.2,2.9,6.9,9.6,3.8,14.4
		C396.9,753.7,396.4,758.6,382.6,769.4z"/>
	<path class="st5" d="M380.6,762.8c-0.8,0.6-12.8,5.8-13.5,6.4c-1.2,0.9-4.7,3.4-6.8,4.8c-4.4,2.8-14,14-28.2,5
		c-20.8-13.2,32.2-44.5,32.2-44.5l23.3-10.6c2.8-1.3,6.2-1.1,8.9,0.5l0,0c5.2,2.9,6.9,9.6,3.8,14.4
		C394.9,747.1,394.3,752.1,380.6,762.8z"/>
	<path class="st6" d="M395.6,747.3c1.3-2.2,3.3-6.4,5-9c3.2-4.8,1.1-11-4.1-13.9c-2.8-1.6-6.1-1.8-8.9-0.5l-11.4,5.2
		C382.6,731.8,389.9,737.9,395.6,747.3z"/>
	<g>
		<g>
			<path class="st7" d="M289.8,687.9c16.9-11.5,34.2-23.3,52.9-31.8c0.7-0.3,1.5-0.6,2.1-1c-5.6,2.9-3.1,1.2-1.5,0.7
				c1.2-0.5,2.5-0.9,3.7-1.3c1.4-0.5,5.5-2.3,7-1.7c-1.2-0.5-6.4,0.7-2.1,0.5c2.7-0.2,3.1,1.8-2.5-0.5c0.5,0.2,1.5,0.5,2,0.5
				c1.5,0-3.8-1.6-3.7-1.6c0.5,0.2,0.9,0.5,1.3,0.7c1.2,0.8-5-4.2-2.3-1.7c2.3,2.2-3.1-5.1-1.7-2.2c0.2,0.5,0.6,1.3,1,1.8
				c-3.2-4.3-1.8-4.8-0.9-1.9c0.5,1.6,0.7,3.2,1.1,4.9c0.5,2.3-0.7-6.7-0.3-2c0.1,1.2,0.2,2.4,0.3,3.6c0.3,4.7,0.4,9.5,0.4,14.3
				c0,2.5,0.1,5.1,0.2,7.6c0,1.1-0.1,2.5,0.1,3.6c-1-4.9,1.2-5.5,0.3-3.1c-0.2,0.7-0.4,1.4-0.6,2.1c-0.5,1.6-3.2,7.5-0.4,1.4
				c-1,2.1-1.9,4.3-2.8,6.5c-2.7,6.3-5.5,12.6-8,19c-5,12.8-8.3,26.1-9.1,39.9c-0.5,10.4,9.6,20.4,19.9,19.9
				c11.3-0.5,19.4-8.8,19.9-19.9c0.1-1.3-0.1-3.4,0.3-4.6c-1.7,4.5-0.1,0.6,0.2-0.9c0.5-2.6,1.1-5.1,1.7-7.7
				c1.6-6,3.6-11.8,5.9-17.5c0.5-1.3,1-2.8,1.6-4.1c-2.2,4.2-0.6,1.4-0.1,0.2c0.9-2.2,1.9-4.3,2.8-6.5c2.2-5,4.5-9.9,6.3-15.1
				c2.2-6.5,1.6-13.3,1.5-20c-0.1-5.2-0.1-10.4-0.5-15.6c-0.8-11.8-2.9-23.8-11.8-32.4c-10.9-10.6-27.3-9.6-40.6-4.6
				c-22.9,8.6-43.6,22.7-63.8,36.4c-8.6,5.9-13.3,17.8-7.2,27.3C268,689.3,280.6,694.2,289.8,687.9L289.8,687.9z"/>
		</g>
	</g>
	<g>
		<g>
			<path class="st8" d="M362.5,742c-8.8,6.9-26.3,4.9-32.3-4.8c-0.4,5.1-0.7,10.3-0.8,15.4c-0.6,20.9,31.9,22.8,32.6,1.8
				C362,750.3,362.3,746.1,362.5,742z"/>
		</g>
	</g>
	<path class="st9" d="M321.8,733.5l-0.4,14.4c0,0.6,0.1,1.2,0.5,1.7c2,3.1,10,13.4,25.8,11.5c13.8-1.7,21.4-5.6,24.3-7.4
		c0.9-0.6,1.4-1.6,1.4-2.7l-0.5-14.8c-0.1-2.2-2.4-3.6-4.4-2.6c-7.2,3.7-23,9-42-2.7C324.5,729.8,321.9,731.1,321.8,733.5z"/>
</g>
<g>
	<path class="st10" d="M257.4,665.7L257.4,665.7c1.8,3.9-5.5-14.6-2.6-11.4c6,6.7,38.9,47.2,47.5,50c10.3,3.3-16.6-20.7-16.6-20.7
		s86.1-50.3,84.3-52.8c-14.2-19.4-27.6-25.5-54.8-14.9C284.3,627.9,248.7,647,257.4,665.7z"/>
</g>
<g>
	<path class="st4" d="M435.1,798.9c-0.8,0.6-13,5.4-13.7,6c-1.2,0.9-4.8,3.3-6.9,4.5c-4.5,2.7-14.5,13.5-28.4,4.1
		c-20.3-13.8,33.7-43.4,33.7-43.4l23.6-9.8c2.9-1.2,6.2-0.9,8.9,0.8l0,0c5.1,3.1,6.6,9.8,3.3,14.6
		C449.9,783.7,449.2,788.7,435.1,798.9z"/>
	<path class="st5" d="M433.3,792.3c-0.8,0.6-13,5.4-13.7,6c-1.2,0.9-4.8,3.3-6.9,4.5c-4.5,2.7-14.5,13.5-28.4,4.1
		c-20.3-13.8,33.7-43.4,33.7-43.4l23.6-9.8c2.9-1.2,6.2-0.9,8.9,0.8h0c5.1,3.1,6.6,9.8,3.3,14.6
		C448.1,777.1,447.4,782.1,433.3,792.3z"/>
	<path class="st6" d="M448.8,777.3c1.4-2.2,3.5-6.3,5.3-8.8c3.3-4.7,1.5-11-3.6-14.1c-2.7-1.7-6.1-2-8.9-0.8l-11.5,4.8
		C436.3,761.4,443.4,767.7,448.8,777.3z"/>
	<g>
		<g>
			<path class="st7" d="M327.5,713.9c16.3-11.8,32.6-23.9,50.1-34.1c2.6-1.5,5.3-3,8-4.3c0.6-0.3,1.3-0.6,1.9-0.9
				c2.6-1.3-2.7,1.1-2.6,1.1c1.3-0.4,2.6-1,4-1.4c0.9-0.3,1.8-0.4,2.7-0.7c3.3-0.9-6.1,0.5-2.4,0.3c2.4-0.1,4.3,1.1-2.6-0.5
				c4,0.9-4.9-2.7-2.1-1c2,1.2-4.8-4.3-2.3-1.7c2.1,2.1-3.5-5-1.7-2.1c2.2,3.5-1.2-4.1-0.8-2.1c0.2,1,0.6,2,0.8,3
				c1.1,4.5-0.4-4.6-0.2-1.7c0.1,1.2,0.2,2.5,0.3,3.7c0.1,2.9,0.1,5.9,0,8.8c-0.4,11.8-0.2,23.6-0.2,35.4c0.1,19.5,0.3,39.1-1,58.5
				c-0.7,10.4,9.7,20.4,19.9,19.9c11.4-0.5,19.1-8.8,19.9-19.9c2.2-31.6,0.4-63.3,1.2-94.9c0.4-13.2-0.8-28.3-11.2-37.8
				c-13.1-12-30.5-7.1-44.6-0.1c-20.4,10.2-38.9,24.7-57.3,38c-8.4,6.1-13.4,17.6-7.2,27.3C305.6,715.1,318.5,720.5,327.5,713.9
				L327.5,713.9z"/>
		</g>
	</g>
	<g>
		<g>
			<path class="st8" d="M415.9,770.9c-9.1,6.6-26.4,4.1-32.2-5.8c-0.6,5.1-1,10.3-1.4,15.4c-1.3,20.9,31.2,23.8,32.5,2.9
				C415.2,779.2,415.5,775,415.9,770.9z"/>
		</g>
	</g>
	<path class="st9" d="M375.5,761l-0.9,14.4c0,0.6,0.1,1.2,0.4,1.8c1.9,3.1,9.6,13.7,25.4,12.3c13.9-1.2,21.6-4.9,24.5-6.6
		c0.9-0.5,1.5-1.5,1.5-2.6l-0.1-14.8c0-2.2-2.3-3.7-4.3-2.7c-7.3,3.5-23.3,8.2-41.8-4.1C378.3,757.5,375.7,758.7,375.5,761z"/>
</g>
<path class="st11" d="M400.1,839.4l0.4-0.1c2.9-0.4,5-3.2,4.5-6.1l-20.9-141.1c-0.4-2.9-3.2-5-6.1-4.5l-0.4,0.1
	c-2.9,0.4-5,3.2-4.5,6.1L394,834.9C394.4,837.8,397.1,839.8,400.1,839.4z"/>
<path class="st2" d="M139.2,658.5l-1.7-0.2c-2.7-0.4-4.6-2.9-4.2-5.6l30.5-205.4c0.4-2.7,2.9-4.6,5.6-4.2l1.7,0.2
	c2.7,0.4,4.6,2.9,4.2,5.6l-30.5,205.4C144.4,657,141.9,658.9,139.2,658.5z"/>
<g>
	<rect x="121" y="461.5" class="st12" width="37" height="21.5"/>
	<rect x="793.2" y="598.8" class="st12" width="37" height="21.5"/>
	<path class="st12" d="M582.3,753.9L125.7,490.3c-7.2-4.1-6.3-11.4,2-16.1l213.1-123c8.3-4.8,20.8-5.3,27.9-1.2l456.6,263.6
		c7.2,4.1,6.3,11.4-2,16.1l-213.1,123C602,757.5,589.5,758,582.3,753.9z"/>
	<path class="st13" d="M582.3,733.3L125.7,469.7c-7.2-4.1-6.3-11.4,2-16.1l213.1-123c8.3-4.8,20.8-5.3,27.9-1.2L825.3,593
		c7.2,4.1,6.3,11.4-2,16.1l-213.1,123C602,736.9,589.5,737.4,582.3,733.3z"/>
</g>
<path class="st14" d="M257.8,614.4l-94.5,73c-15.4,9.5-27,0.1-27-16.2l-1.8-26.4c0-16.2,12.7-37.3,28.1-46.7l95.3-58.4
	c15.4-9.5,28.1-3.9,28,12.3l0,15.6C285.9,583.9,273.3,604.9,257.8,614.4z"/>
<path class="st11" d="M135.2,846L135.2,846c-3.1-0.5-5.2-3.3-4.7-6.4l26.3-177.6c0.5-3.1,3.3-5.2,6.4-4.7v0c3.1,0.5,5.2,3.3,4.7,6.4
	l-26.3,177.6C141.1,844.4,138.3,846.5,135.2,846z"/>
<path class="st11" d="M259.7,921.6L259.7,921.6c-3.2-0.5-5.3-3.4-4.9-6.6l29.7-200.3c0.5-3.2,3.4-5.3,6.6-4.9l0,0
	c3.2,0.5,5.3,3.4,4.9,6.6l-29.7,200.3C265.8,919.9,262.9,922.1,259.7,921.6z"/>
<path class="st15" d="M283.6,779.6l-119.6-69c-12.9-7.4-20-22.2-20-22.2c-4.8-11,6.7-19,19.5-11.6l125.7,74
	c12.9,7.4,17.7,15.2,15.6,24.4C304.9,775.2,299.9,788,283.6,779.6z"/>
<path class="st12" d="M522.9,538.1l-133-76.8c-0.8-0.4-1.7-0.4-2.5,0L347,485.2c-1.6,0.9-1.6,3.3,0,4.2l132.5,76.5
	c0.8,0.4,1.7,0.4,2.4,0l40.8-23.6C524.5,541.4,524.5,539,522.9,538.1z"/>
<g>
	<path class="st16" d="M482.1,560.6l-132.5-76.5c-1.6-0.9-1.6-3.3,0-4.2l40.4-23.8c0.8-0.4,1.7-0.5,2.5,0l133,76.8
		c1.6,0.9,1.6,3.3,0,4.2l-40.8,23.6C483.8,561.1,482.9,561.1,482.1,560.6z"/>
	<path class="st12" d="M396.5,468c-0.2,0.1-0.7,0.1-1-0.1l-8.9-5.2c-0.3-0.2-0.4-0.4-0.2-0.6l5.9-3.4c0.2-0.1,0.7-0.1,1,0.1l8.9,5.2
		c0.3,0.2,0.4,0.4,0.2,0.6L396.5,468z"/>
	<path class="st12" d="M406.9,483.4c-0.2,0.1-0.6,0.1-1-0.1l-8.9-5.2c-0.3-0.2-0.4-0.4-0.2-0.6l5.9-3.4c0.2-0.1,0.6-0.1,1,0.1
		l8.9,5.2c0.3,0.2,0.4,0.4,0.2,0.6L406.9,483.4z"/>
	<path class="st12" d="M401.6,489.8c-0.2,0.1-0.6,0.1-1-0.1l-8.9-5.2c-0.3-0.2-0.4-0.4-0.2-0.6l5.9-3.4c0.2-0.1,0.7-0.1,1,0.1
		l8.9,5.2c0.3,0.2,0.4,0.4,0.2,0.6L401.6,489.8z"/>
	<path class="st12" d="M387.5,491c-0.2,0.1-0.6,0.1-1-0.1l-8.9-5.2c-0.3-0.2-0.4-0.4-0.2-0.6l5.9-3.4c0.2-0.1,0.7-0.1,1,0.1l8.9,5.2
		c0.3,0.2,0.4,0.4,0.2,0.6L387.5,491z"/>
	<path class="st12" d="M378.3,496.3c-0.2,0.1-0.7,0-1.2-0.2l-11.7-6.8c-0.4-0.2-0.6-0.5-0.4-0.7l7-4c0.2-0.1,0.7,0,1.2,0.2l11.7,6.8
		c0.4,0.2,0.6,0.5,0.4,0.7L378.3,496.3z"/>
	<path class="st12" d="M455.2,540.8c-0.2,0.1-0.6,0-0.9-0.2l-8.9-5.2c-0.3-0.2-0.4-0.4-0.3-0.5l2.6-1.5c0.2-0.1,0.6,0,0.9,0.2
		l8.9,5.2c0.3,0.2,0.4,0.4,0.3,0.5L455.2,540.8z"/>
	<path class="st12" d="M467.2,547.9c-0.2,0.1-0.6,0-0.9-0.2l-8.9-5.2c-0.3-0.2-0.4-0.4-0.3-0.5l2.6-1.5c0.2-0.1,0.6,0,0.9,0.2
		l8.9,5.2c0.3,0.2,0.4,0.4,0.3,0.5L467.2,547.9z"/>
	<path class="st12" d="M479.8,555c-0.2,0.1-0.6,0-0.9-0.2l-8.9-5.2c-0.3-0.2-0.4-0.4-0.3-0.5l2.5-1.4c0.2-0.1,0.6,0,0.9,0.2l8.9,5.2
		c0.3,0.2,0.4,0.4,0.3,0.5L479.8,555z"/>
	<path class="st12" d="M472,545.2c-0.2,0.1-0.6,0-0.9-0.2l-8.9-5.2c-0.3-0.2-0.4-0.4-0.3-0.5l2.5-1.4c0.2-0.1,0.6,0,0.9,0.2l8.9,5.2
		c0.3,0.2,0.4,0.4,0.3,0.5L472,545.2z"/>
	<path class="st12" d="M439.8,531.8c-0.2,0.1-0.7,0.1-1-0.1l-58.2-33.6c-0.3-0.2-0.4-0.4-0.2-0.6l7-4c0.2-0.1,0.7-0.1,1,0.1
		l58.2,33.6c0.3,0.2,0.4,0.4,0.2,0.6L439.8,531.8z"/>
	<path class="st12" d="M433.8,526.7c0,0-0.2-0.1-0.5-0.3L387,499.8c-0.3-0.1-0.5-0.3-0.4-0.3l0.4-0.2c0,0,0.2,0.1,0.5,0.3l46.3,26.7
		c0.3,0.1,0.5,0.3,0.4,0.3L433.8,526.7z"/>
	<path class="st12" d="M399.7,498.1c-0.2,0.1-0.6,0.1-1-0.1l-8.9-5.2c-0.3-0.2-0.4-0.4-0.2-0.6l5.9-3.4c0.2-0.1,0.7-0.1,1,0.1
		l8.9,5.2c0.3,0.2,0.4,0.4,0.2,0.6L399.7,498.1z"/>
	<path class="st12" d="M412,505.2c-0.2,0.1-0.7,0.1-1-0.1l-8.9-5.2c-0.3-0.2-0.4-0.4-0.2-0.6l5.9-3.4c0.2-0.1,0.7-0.1,1,0.1l8.9,5.2
		c0.3,0.2,0.4,0.4,0.2,0.6L412,505.2z"/>
	<path class="st12" d="M424.3,512.3c-0.2,0.1-0.6,0.1-1-0.1l-8.9-5.2c-0.3-0.2-0.4-0.4-0.2-0.6l5.9-3.4c0.2-0.1,0.7-0.1,1,0.1
		l8.9,5.2c0.3,0.2,0.4,0.4,0.2,0.6L424.3,512.3z"/>
	<path class="st12" d="M436.6,519.4c-0.2,0.1-0.6,0.1-1-0.1l-8.9-5.2c-0.3-0.2-0.4-0.4-0.2-0.6l5.9-3.4c0.2-0.1,0.7-0.1,1,0.1
		l8.9,5.2c0.3,0.2,0.4,0.4,0.2,0.6L436.6,519.4z"/>
	<path class="st12" d="M449,526.5c-0.2,0.1-0.7,0.1-1-0.1l-8.9-5.2c-0.3-0.2-0.4-0.4-0.2-0.6l5.9-3.4c0.2-0.1,0.7-0.1,1,0.1l8.9,5.2
		c0.3,0.2,0.4,0.4,0.2,0.6L449,526.5z"/>
	<path class="st12" d="M461.3,533.6c-0.2,0.1-0.7,0.1-1-0.1l-8.9-5.2c-0.3-0.2-0.4-0.4-0.2-0.6l5.9-3.4c0.2-0.1,0.7-0.1,1,0.1
		l8.9,5.2c0.3,0.2,0.4,0.4,0.2,0.6L461.3,533.6z"/>
	<path class="st12" d="M489,549.6c-0.2,0.1-0.6,0.1-1-0.1l-24.4-14.1c-0.3-0.2-0.4-0.4-0.2-0.6l5.9-3.4c0.2-0.1,0.7-0.1,1,0.1
		l24.4,14.1c0.3,0.2,0.4,0.4,0.2,0.6L489,549.6z"/>
	<path class="st12" d="M413.9,496.9c-0.2,0.1-0.6,0.1-1-0.1l-8.9-5.2c-0.3-0.2-0.4-0.4-0.2-0.6l5.9-3.4c0.2-0.1,0.6-0.1,1,0.1
		l8.9,5.2c0.3,0.2,0.4,0.4,0.2,0.6L413.9,496.9z"/>
	<path class="st12" d="M426.2,504c-0.2,0.1-0.6,0.1-1-0.1l-8.9-5.2c-0.3-0.2-0.4-0.4-0.2-0.6l5.9-3.4c0.2-0.1,0.6-0.1,1,0.1l8.9,5.2
		c0.3,0.2,0.4,0.4,0.2,0.6L426.2,504z"/>
	<path class="st12" d="M438.5,511.1c-0.2,0.1-0.7,0.1-1-0.1l-8.9-5.2c-0.3-0.2-0.4-0.4-0.2-0.6l5.9-3.4c0.2-0.1,0.7-0.1,1,0.1
		l8.9,5.2c0.3,0.2,0.4,0.4,0.2,0.6L438.5,511.1z"/>
	<path class="st12" d="M450.8,518.2c-0.2,0.1-0.6,0.1-1-0.1l-8.9-5.2c-0.3-0.2-0.4-0.4-0.2-0.6l5.9-3.4c0.2-0.1,0.6-0.1,1,0.1
		l8.9,5.2c0.3,0.2,0.4,0.4,0.2,0.6L450.8,518.2z"/>
	<path class="st12" d="M463.1,525.3c-0.2,0.1-0.6,0.1-1-0.1l-8.9-5.2c-0.3-0.2-0.4-0.4-0.2-0.6l5.9-3.4c0.2-0.1,0.6-0.1,1,0.1
		l8.9,5.2c0.3,0.2,0.4,0.4,0.2,0.6L463.1,525.3z"/>
	<path class="st12" d="M475.5,532.4c-0.2,0.1-0.6,0.1-1-0.1l-8.9-5.2c-0.3-0.2-0.4-0.4-0.2-0.6l5.9-3.4c0.2-0.1,0.6-0.1,1,0.1
		l8.9,5.2c0.3,0.2,0.4,0.4,0.2,0.6L475.5,532.4z"/>
	<path class="st12" d="M487.8,539.5c-0.2,0.1-0.6,0.1-1-0.1l-8.9-5.2c-0.3-0.2-0.4-0.4-0.2-0.6l5.9-3.4c0.2-0.1,0.6-0.1,1,0.1
		l8.9,5.2c0.3,0.2,0.4,0.4,0.2,0.6L487.8,539.5z"/>
	<path class="st12" d="M419.1,490.5c-0.2,0.1-0.7,0.1-1-0.1l-8.9-5.2c-0.3-0.2-0.4-0.4-0.2-0.6l5.9-3.4c0.2-0.1,0.6-0.1,1,0.1
		l8.9,5.2c0.3,0.2,0.4,0.4,0.2,0.6L419.1,490.5z"/>
	<path class="st12" d="M431.5,497.6c-0.2,0.1-0.7,0.1-1-0.1l-8.9-5.2c-0.3-0.2-0.4-0.4-0.2-0.6l5.9-3.4c0.2-0.1,0.6-0.1,1,0.1
		l8.9,5.2c0.3,0.2,0.4,0.4,0.2,0.6L431.5,497.6z"/>
	<path class="st12" d="M443.8,504.7c-0.2,0.1-0.7,0.1-1-0.1l-8.9-5.2c-0.3-0.2-0.4-0.4-0.2-0.6l5.9-3.4c0.2-0.1,0.6-0.1,1,0.1
		l8.9,5.2c0.3,0.2,0.4,0.4,0.2,0.6L443.8,504.7z"/>
	<path class="st12" d="M456.1,511.8c-0.2,0.1-0.6,0.1-1-0.1l-8.9-5.2c-0.3-0.2-0.4-0.4-0.2-0.6l5.9-3.4c0.2-0.1,0.6-0.1,1,0.1
		l8.9,5.2c0.3,0.2,0.4,0.4,0.2,0.6L456.1,511.8z"/>
	<path class="st12" d="M468.4,518.9c-0.2,0.1-0.7,0.1-1-0.1l-8.9-5.2c-0.3-0.2-0.4-0.4-0.2-0.6l5.9-3.4c0.2-0.1,0.6-0.1,1,0.1
		l8.9,5.2c0.3,0.2,0.4,0.4,0.2,0.6L468.4,518.9z"/>
	<path class="st12" d="M480.7,526c-0.2,0.1-0.7,0.1-1-0.1l-8.9-5.2c-0.3-0.2-0.4-0.4-0.2-0.6l5.9-3.4c0.2-0.1,0.6-0.1,1,0.1l8.9,5.2
		c0.3,0.2,0.4,0.4,0.2,0.6L480.7,526z"/>
	<path class="st12" d="M493,533.1c-0.2,0.1-0.7,0.1-1-0.1l-8.9-5.2c-0.3-0.2-0.4-0.4-0.2-0.6l5.9-3.4c0.2-0.1,0.6-0.1,1,0.1l8.9,5.2
		c0.3,0.2,0.4,0.4,0.2,0.6L493,533.1z"/>
	<path class="st12" d="M394.6,476.3c-0.2,0.1-0.7,0.1-1-0.1l-15.2-8.7c-0.3-0.2-0.4-0.4-0.2-0.6l5.9-3.4c0.2-0.1,0.6-0.1,1,0.1
		l15.2,8.7c0.3,0.2,0.4,0.4,0.2,0.6L394.6,476.3z"/>
	<path class="st12" d="M513.5,535.5c-0.2,0.1-0.7,0.1-1-0.1l-15.2-8.7c-0.3-0.2-0.4-0.4-0.2-0.6l5.9-3.4c0.2-0.1,0.7-0.1,1,0.1
		l15.2,8.7c0.3,0.2,0.4,0.4,0.2,0.6L513.5,535.5z"/>
	<path class="st12" d="M389.3,482.7c-0.2,0.1-0.6,0.1-1-0.1l-18.1-10.4c-0.3-0.2-0.4-0.4-0.2-0.6l5.9-3.4c0.2-0.1,0.6-0.1,1,0.1
		l18.1,10.4c0.3,0.2,0.4,0.4,0.2,0.6L389.3,482.7z"/>
	<path class="st12" d="M375.1,483.9c-0.2,0.1-0.6,0.1-1-0.1l-12.1-7c-0.3-0.2-0.4-0.4-0.2-0.6l5.9-3.4c0.2-0.1,0.7-0.1,1,0.1l12.1,7
		c0.3,0.2,0.4,0.4,0.2,0.6L375.1,483.9z"/>
	<path class="st12" d="M408.8,475.1c-0.2,0.1-0.6,0.1-1-0.1l-8.9-5.2c-0.3-0.2-0.4-0.4-0.2-0.6l5.9-3.4c0.2-0.1,0.7-0.1,1,0.1
		l8.9,5.2c0.3,0.2,0.4,0.4,0.2,0.6L408.8,475.1z"/>
	<path class="st12" d="M421.1,482.2c-0.2,0.1-0.7,0.1-1-0.1l-8.9-5.2c-0.3-0.2-0.4-0.4-0.2-0.6l5.9-3.4c0.2-0.1,0.7-0.1,1,0.1
		l8.9,5.2c0.3,0.2,0.4,0.4,0.2,0.6L421.1,482.2z"/>
	<path class="st12" d="M433.4,489.3c-0.2,0.1-0.6,0.1-1-0.1l-8.9-5.2c-0.3-0.2-0.4-0.4-0.2-0.6l5.9-3.4c0.2-0.1,0.7-0.1,1,0.1
		l8.9,5.2c0.3,0.2,0.4,0.4,0.2,0.6L433.4,489.3z"/>
	<path class="st12" d="M445.7,496.4c-0.2,0.1-0.7,0.1-1-0.1l-8.9-5.2c-0.3-0.2-0.4-0.4-0.2-0.6l5.9-3.4c0.2-0.1,0.6-0.1,1,0.1
		l8.9,5.2c0.3,0.2,0.4,0.4,0.2,0.6L445.7,496.4z"/>
	<path class="st12" d="M458,503.5c-0.2,0.1-0.6,0.1-1-0.1l-8.9-5.2c-0.3-0.2-0.4-0.4-0.2-0.6l5.9-3.4c0.2-0.1,0.6-0.1,1,0.1l8.9,5.2
		c0.3,0.2,0.4,0.4,0.2,0.6L458,503.5z"/>
	<path class="st12" d="M470.3,510.6c-0.2,0.1-0.7,0.1-1-0.1l-8.9-5.2c-0.3-0.2-0.4-0.4-0.2-0.6l5.9-3.4c0.2-0.1,0.6-0.1,1,0.1
		l8.9,5.2c0.3,0.2,0.4,0.4,0.2,0.6L470.3,510.6z"/>
	<path class="st12" d="M482.6,517.7c-0.2,0.1-0.7,0.1-1-0.1l-8.9-5.2c-0.3-0.2-0.4-0.4-0.2-0.6l5.9-3.4c0.2-0.1,0.7-0.1,1,0.1
		l8.9,5.2c0.3,0.2,0.4,0.4,0.2,0.6L482.6,517.7z"/>
	<path class="st12" d="M494.9,524.8c-0.2,0.1-0.6,0.1-1-0.1l-8.9-5.2c-0.3-0.2-0.4-0.4-0.2-0.6l5.9-3.4c0.2-0.1,0.6-0.1,1,0.1
		l8.9,5.2c0.3,0.2,0.4,0.4,0.2,0.6L494.9,524.8z"/>
	<path class="st12" d="M502.1,531.1c-0.1-0.1-0.3-0.1-0.5-0.2c-0.2,0-0.3,0-0.4,0.1l-5.9,3.4c-0.1,0.1-0.1,0.1-0.1,0.3
		c0,0.1,0.1,0.2,0.3,0.3l2.3,1.3l-7.8,4.5c-0.1,0.1-0.1,0.2-0.1,0.3c0,0.1,0.1,0.2,0.3,0.3l6,3.5c0.2,0.1,0.3,0.2,0.5,0.2
		c0.2,0,0.3,0,0.4-0.1l14.1-8.1c0.1-0.1,0.1-0.1,0.1-0.3c0-0.1-0.1-0.2-0.3-0.3L502.1,531.1z"/>
</g>
<g>
	<g>
		<path class="st17" d="M204.1,509.9c7.4,10.1,14.9,20.2,23.1,29.7c4,4.6,8.6,9.8,14.7,11.7c8.1,2.5,16-2.3,18.5-10.2
			c1.1-3.5,1-7.4,1.2-11.1c0-0.8,0.1-1.6,0.2-2.5c0.2-3.4-0.8,3.1-0.1,0.5c0.2-0.6,0.3-1.3,0.4-2c0.8-3.5-1.2,2.1-0.2,0.2
			c1.5-2.7-2.2,2.3-0.5,0.6c1.3-1.3-3,2.1-1.4,1.1c0.9-0.6,2.5-0.9-1.7,0.7c2.9-1-2.2-0.3-0.9,0c2.4,0.5,5.4,0.1,7.8-0.1
			c22.9-1.4,43.7-11.3,62.8-23.2c9-5.6,17.7-11.6,26.9-16.9c2-1.2,4.1-2.3,6.2-3.3c0.8-0.4,1.7-0.8,2.5-1.2c-3.3,1.5,0.3-0.1,1-0.3
			c1.8-0.6,3.6-1,5.4-1.4c-3.7,0.8-1.5,0.1-0.5,0.2c1,0.1,4.4,0.4,0.1-0.2c6.8,1,13.8-1.7,15.8-9c1.7-6.1-2.1-14.7-9-15.8
			c-17.7-2.7-33.1,7.5-47.3,16.6c-8.3,5.3-16.6,10.8-25.2,15.5c-9.9,5.5-16.7,8.6-27.5,11.3c-5.6,1.4-7.5,1.7-12.5,1.9
			c-4.1,0.2-8.1-0.3-12.1,0.8c-6.9,2-11.7,7.3-14.1,13.9c-1.4,3.9-1.7,8.1-1.9,12.2c-0.1,1.5-0.2,2.9-0.2,4.4
			c-0.1,3,0.4-2.3,0.2-1.4c-0.6,2.7,0.5-0.8,0.7-1.2c1.6-2.7,5.5-5.4,9.7-5.4c4,0,3.9,0.7,2.6,0.3c3.9,1.2,3,1.4,1.7,0.6
			c-1.6-0.9,0.9-0.5,1.3,1c-0.1-0.4-1.3-1.1-1.5-1.4c-1-0.9-1.9-1.9-2.8-2.9c-8.2-8.9-14.1-17.3-21.3-27c-4.1-5.6-11.1-8.4-17.6-4.6
			C203.2,495.5,200,504.3,204.1,509.9L204.1,509.9z"/>
	</g>
</g>
<path class="st12" d="M596.1,566.2c-9.6,5.6-25.2,5.5-34.9-0.1c-9.7-5.6-9.7-14.6-0.1-20.2c9.6-5.6,25.2-5.5,34.9,0.1
	C605.6,551.6,605.7,560.7,596.1,566.2z"/>
<path class="st12" d="M728.7,597.1c-8.4,4.9-22.2,4.9-30.7,0c-8.5-4.9-8.5-12.8-0.1-17.7c8.4-4.9,22.2-4.9,30.7,0
	C737.1,584.3,737.1,592.2,728.7,597.1z"/>
<g>
	<path class="st18" d="M586.1,563.6c-8.5,4.9-22.3,4.9-30.9-0.1c-8.6-4.9-8.6-12.9-0.1-17.8c8.5-4.9,22.3-4.9,30.9,0.1
		C594.5,550.7,594.6,558.7,586.1,563.6z"/>
	<polygon class="st18" points="588.8,555.1 548.8,554.9 548.8,519.3 588.8,519.6 	"/>
	<path class="st19" d="M580.5,519.5V552l0,1.3c0,5.5-2.8,6.4-7.1,8.9c-2.6,1.5-5.7,3.1-8.9,3.7c7.5,1.4,15.9-0.6,21.8-4
		c4.3-2.5,6.4-4.4,6.3-9.9h0l-0.1-32.3L580.5,519.5z"/>
	<path class="st20" d="M586.1,528.6c-8.5,4.9-22.3,4.9-30.9-0.1c-8.6-4.9-8.6-12.9-0.1-17.8c8.5-4.9,22.3-4.9,30.9,0.1
		C594.5,515.7,594.6,523.7,586.1,528.6z"/>
	<path class="st21" d="M583.5,526.8c-7,4.1-18.4,4-25.5,0c-7.1-4.1-7.1-10.7-0.1-14.7c7-4.1,18.4-4,25.5,0
		C590.5,516.2,590.5,522.8,583.5,526.8z"/>
	<path class="st22" d="M583.4,518.4c-7.1-4.1-18.5-4.1-25.5,0c-2.1,1.2-3.5,2.6-4.4,4.2c0.9,1.5,2.3,3,4.5,4.2
		c7.1,4.1,18.5,4.1,25.5,0c2.1-1.2,3.5-2.6,4.4-4.2C587,521.1,585.5,519.7,583.4,518.4z"/>
	<path class="st23" d="M557.9,526.8c-2.1-1.2-3.5-2.6-4.4-4.2c0.5-0.9,1.2-1.7,2.1-2.5c6.1-1,12.9-0.2,17.7,2.6
		c2.1,1.2,3.5,2.6,4.4,4.2c0.4,0.7,0.7,1.3,0.8,2c-1.1,0.3-2,0.5-2.9,0.6C569.5,530.5,562.7,529.6,557.9,526.8z"/>
	<g>
		<g>
			<path class="st24" d="M584.2,535.7c2.5,1.3,6.2,2.4,7.1,5.4c0.7,2.5,0.2,6.1,0.2,8.7c0,1.3-0.1,2.7,0,4c0,0.5,0,1,0,1.5
				c0.9,1.1,0.9,1.5,0,1c-1.1,0.1-3.6-1.7-4.6-2.2c-3.2-1.7-6,3.2-2.8,4.8c2.3,1.2,5.7,3.6,8.5,3.3c4-0.4,4.5-4.4,4.6-7.6
				c0.1-4.9,0.8-10.7-0.3-15.5c-1-4.4-6.1-6.3-9.7-8.2C583.8,529.2,581,534.1,584.2,535.7L584.2,535.7z"/>
		</g>
	</g>
</g>
<path class="st25" d="M202.1,485.1c-8.3,9-8,14.8-9,27.5c-1,12.4,6.4,23.6,18.1,27.5L328,579.1c0,0,32.7-45.4-5.7-61.9
	c-20-8.6-33.5-20.4-48.4-30.8C252,471.1,221.2,464.4,202.1,485.1z"/>
<path class="st25" d="M190.7,685c-7.8-2.8-5.7-111.1,3.6-185.2l136.8,62.3c-12.1,64.1-12.1,112.8-6.7,189.2L190.7,685z"/>
<path class="st26" d="M331.1,562.2L308.4,552c-13.8,65.1-16.5,112.4-6.5,185.8l-0.4-0.1c0,4.3-3.2,8.9-9.4,12.5v0
	c-11.1,6.5,5.2,9.9,16.3,3.3l29-57C331.1,633.9,315.6,647.2,331.1,562.2z"/>
<path class="st15" d="M405.4,719.7l-95.3,58.4c-15.4,9.5-27.4,5-26.5-9.9l0.8-14.3c0.9-14.9,14.2-34.8,29.6-44.2l95.3-58.4
	c15.4-9.5,27.4-5,26.5,9.9l-0.8,14.3C434.1,690.4,420.8,710.3,405.4,719.7z"/>
<path class="st15" d="M143,682l-14.7-133.1c-2.9-19.4,14.1-24.7,36.7-11.5l90.4,52.7c16.3,9.5,31.3,26.3,37.5,41.9l34.2,86.4
	c9.8,24.8-23.4,65.1-46.2,51.5L143,682z"/>
<path class="st24" d="M504,593.7L486,606c-6.6,4.5-15.8,2.8-20.3-3.8l0,0c-4.5-6.6-2.8-15.8,3.8-20.3l18-12.3
	c6.6-4.5,15.8-2.8,20.3,3.8l0,0C512.3,580,510.6,589.1,504,593.7z"/>
<g>
	<g>
		<path class="st17" d="M330.6,565.7c10.6,9.5,20.1,19.9,29.5,30.6c6.6,7.5,13.6,14.5,23.1,18.2c22.8,8.8,48.3-6.5,68-16.4
			c13.7-6.9,25-13.2,39.1-16.7c16-4,9.2-28.7-6.8-24.7c-12.3,3-24,8.8-35.3,14.4c-6,2.9-11.9,6-17.8,8.9c-2.8,1.4-5.6,2.7-8.4,4
			c-3.4,1.6-4.3,2-6.8,3c-4.7,1.9-9.5,3.3-14.5,4.4c-2.3,0.5,1.9,0.1-1,0c-1,0-1.9,0.1-2.9,0c-1.1,0-2.1-0.2-3.1-0.2
			c2.4,0.1,1.3,0.2-0.2-0.2c-0.9-0.2-1.8-0.7-2.6-0.8c1.6,0.3,1.9,1,0.3,0c-0.7-0.4-1.3-0.7-2-1.2c-1.3-0.9-2.4-2.2-0.6-0.3
			c-2.9-3-6-5.7-8.8-8.8c-9.9-11.1-19.8-22.2-30.9-32.2c-5.2-4.6-13.1-5.1-18.1,0C325.9,552.3,325.4,561.1,330.6,565.7L330.6,565.7z
			"/>
	</g>
</g>
<g>
	<path class="st25" d="M306.6,554l49.1,47.9c16,11.7,36.9-17.7,24.5-28.4l-47.8-50c-7.9-6.8-18.7-6.8-24.8,0.1v0
		C301.3,530.7,299.2,545.8,306.6,554z"/>
	<g>
		<g>
			<path class="st27" d="M348.3,594.5c13.6-4.5,22.9-12.1,27.2-26.1c1.6-5.2-6.5-7.4-8.1-2.2c-3.5,11.2-10.6,16.7-21.4,20.3
				C341,588.1,343.2,596.2,348.3,594.5L348.3,594.5z"/>
		</g>
	</g>
</g>
<path class="st12" d="M425.2,411.9L425.2,411.9c0-0.5-0.3-1-0.9-1.4l-23.2-13.4c-1.4-0.8-3.8-0.7-5.4,0.2l-41.9,24.2
	c-0.8,0.5-1.3,1.1-1.3,1.7l0,0l0.1,2.3c0,0,0,0,0,0c-0.2,0.7,0.1,1.3,0.9,1.8l23.2,13.4c0.7,0.4,1.6,0.6,2.6,0.5c1,0,2-0.3,2.8-0.8
	l41.9-24.2c0.9-0.5,1.3-1.1,1.3-1.7l0,0L425.2,411.9z"/>
<g>
	
		<linearGradient id="SVGID_1_" gradientUnits="userSpaceOnUse" x1="343.045" y1="423.0428" x2="346.0408" y2="423.0428" gradientTransform="matrix(1 0 0 1 5.9476 0)">
		<stop  offset="3.940890e-02" style="stop-color:#FFFFFF"/>
		<stop  offset="0.3172" style="stop-color:#FCFDFE"/>
		<stop  offset="0.5068" style="stop-color:#F3F7FB"/>
		<stop  offset="0.6701" style="stop-color:#E4EDF7"/>
		<stop  offset="0.8186" style="stop-color:#CEDEF0"/>
		<stop  offset="0.9557" style="stop-color:#B3CBE8"/>
		<stop  offset="1" style="stop-color:#A8C4E5"/>
	</linearGradient>
	<path class="st28" d="M349.1,423.4l-0.1-2.3l3,1.9c0,0-0.8,2.1-0.9,2C351,425,349.1,423.4,349.1,423.4z"/>
	
		<linearGradient id="SVGID_2_" gradientUnits="userSpaceOnUse" x1="343.045" y1="418.0626" x2="415.8408" y2="418.0626" gradientTransform="matrix(1 0 0 1 5.9476 0)">
		<stop  offset="3.940890e-02" style="stop-color:#FFFFFF"/>
		<stop  offset="0.3172" style="stop-color:#FCFDFE"/>
		<stop  offset="0.5068" style="stop-color:#F3F7FB"/>
		<stop  offset="0.6701" style="stop-color:#E4EDF7"/>
		<stop  offset="0.8186" style="stop-color:#CEDEF0"/>
		<stop  offset="0.9557" style="stop-color:#B3CBE8"/>
		<stop  offset="1" style="stop-color:#A8C4E5"/>
	</linearGradient>
	<path class="st29" d="M373.1,438.5l-23.2-13.4c-1.4-0.8-1.2-2.2,0.4-3.1l41.9-24.2c1.6-0.9,4-1,5.4-0.2l23.2,13.4
		c1.4,0.8,1.2,2.2-0.4,3.1l-41.9,24.2C376.9,439.2,374.5,439.3,373.1,438.5z"/>
	<path class="st30" d="M375.6,425.7l16.6-27.9c1.6-0.9,4-1,5.4-0.2l23.2,13.4c1.4,0.8,1.2,2.2-0.4,3.1l-41.9,24.2
		c-0.8,0.5-1.8,0.7-2.8,0.8L375.6,425.7z"/>
	<polygon class="st31" points="393.9,416.4 398.1,410.7 421.8,409.7 421.8,412.4 395.9,420.6 	"/>
	<path class="st24" d="M352.3,425c0,0.4-0.3,0.6-0.6,0.4c-0.4-0.2-0.6-0.7-0.6-1.1c0-0.4,0.3-0.6,0.6-0.4
		C352,424.1,352.3,424.6,352.3,425z"/>
	<path class="st24" d="M373.1,435.9l-23.2-13.4c-1.4-0.8-1.2-2.2,0.4-3.1l41.9-24.2c1.6-0.9,4-1,5.4-0.2l23.2,13.4
		c1.4,0.8,1.2,2.2-0.4,3.1l-41.9,24.2C376.9,436.6,374.5,436.7,373.1,435.9z"/>
	<path class="st22" d="M410,404.4l-6.4-3.7c-0.3-0.2-0.2-0.4,0.1-0.6l0,0c0.3-0.2,0.8-0.2,1,0l6.4,3.7c0.3,0.2,0.2,0.4-0.1,0.6l0,0
		C410.8,404.5,410.3,404.5,410,404.4z"/>
	<path class="st24" d="M363.6,432.2l-5.1-3c-0.2-0.1-0.4-0.5-0.4-0.8l0,0c0-0.3,0.2-0.4,0.4-0.3l5.1,3c0.2,0.1,0.4,0.5,0.4,0.8l0,0
		C364,432.2,363.8,432.3,363.6,432.2z"/>
	<path class="st22" d="M414.5,416.3l2.5-1.5c0.2-0.1,0.3-0.3,0.3-0.5l0,0c0-0.2-0.1-0.3-0.3-0.2l-2.5,1.5c-0.2,0.1-0.3,0.3-0.3,0.5
		l0,0C414.2,416.3,414.3,416.4,414.5,416.3z"/>
	<path class="st22" d="M410.9,418.6l2.5-1.5c0.2-0.1,0.3-0.3,0.3-0.5l0,0c0-0.2-0.1-0.3-0.3-0.2l-2.5,1.5c-0.2,0.1-0.3,0.3-0.3,0.5
		v0C410.6,418.6,410.8,418.7,410.9,418.6z"/>
	<path class="st22" d="M366.4,427.5c-1.1,0.6-2.8,0.6-3.9,0c-1.1-0.6-1.1-1.6,0-2.3c1.1-0.6,2.8-0.6,3.9,0
		C367.5,425.9,367.5,426.9,366.4,427.5z"/>
	<path class="st32" d="M393.6,396.6l-35.3,20.4c-0.8,0.5-0.8,1.7,0,2.1l21.4,12.4c0.4,0.2,0.9,0.2,1.2,0l35.3-20.4
		c0.8-0.5,0.8-1.7,0-2.1l-21.4-12.4C394.4,396.3,394,396.3,393.6,396.6z"/>
</g>
<g>
	<path class="st33" d="M718.2,592.2c-9.3,5.4-24.5,5.4-33.9-0.1c-9.4-5.4-9.4-14.2-0.1-19.6c9.3-5.4,24.5-5.4,33.9,0.1
		C727.5,578.1,727.6,586.8,718.2,592.2z"/>
	<polygon class="st33" points="666.1,548.8 677.4,583.4 725,584.1 735.9,550.8 	"/>
	<path class="st34" d="M722.4,551l-10.9,34h0c-0.6,2-2.9,5.4-6.8,7.6c-2.8,1.6-6.2,2.6-9.8,3.2c8.1,1.4,17,0.5,23.3-3.2
		c3.9-2.3,6.2-5.7,6.8-7.7h0l10.9-34H722.4z"/>
	<path class="st35" d="M726.4,561.1c-13.8,8-36.2,7.9-50.1-0.1c-13.9-8-13.9-20.9-0.2-28.9c13.8-8,36.2-7.9,50.1,0.1
		C740.1,540.2,740.1,553.1,726.4,561.1z"/>
	<path class="st36" d="M722.6,558.4c-11.8,6.8-31.1,6.8-43-0.1c-11.9-6.9-12-18-0.1-24.8c11.8-6.8,31.1-6.8,43,0.1
		C734.3,540.4,734.4,551.5,722.6,558.4z"/>
	<g>
		<path class="st37" d="M677.8,538.9L677.8,538.9c-1.5-1.9-2.8-4.1-3-6.5c-0.2-2.4,0.8-5.1,3-6.1c2.6-1.2,5.6,0.3,7.6,2.3
			c2,2,3.4,4.5,5.6,6.4c-2.8-8.7-5.5-17.4-8.3-26.2c-0.8-2.6-1.7-5.4-1.1-8.2c0.6-2.7,3.1-5.3,5.8-4.8c5.3,0.9,4.5,9.8,9.2,12.3
			c-3.4-6.5-5.8-13.5-6.9-20.8c-0.7-4.2-0.9-8.8,1-12.6c1.9-3.8,6.6-6.6,10.6-5.1c5,1.9,5.9,8.4,6.1,13.7c0.2,6.8,0.5,13.6,0.7,20.5
			c1.7-6.8,4.3-14.7,10.9-16.9c1.8,9.4,0.4,19.3-3.9,27.8c1.8-3.1,5.2-5.2,8.8-5.3c1.7,9.5-1.6,19.8-8.5,26.6
			c1.9-2.1,3.8-4.2,5.7-6.3c1.7,6.6-0.6,14.1-5.7,18.6C703.4,558.9,686,549.6,677.8,538.9z"/>
	</g>
</g>
<g>
	<path class="st12" d="M446,421.4l174.8,103.2c1.2,0.7,2.8,0.7,4.2-0.1l12.6-7.3c2.9-1.7,3.2-5.7,0.6-7.3L463.4,406.8
		c-1.2-0.7-2.8-0.7-4.2,0.1l-12.6,7.3C443.7,415.8,443.4,419.8,446,421.4z"/>
	<g>
		<polygon class="st38" points="628.4,516.2 638,509.6 611.7,477.1 620.9,492.5 		"/>
		<path class="st39" d="M432.1,235l9.3-7.5l20.7,23.2c0,0-13.2,9.7-14.4,9.7C446.6,260.4,432.1,235,432.1,235z"/>
		<path class="st38" d="M505.6,502.3l-39.4-22.8c-3.2-1.8-3.1-4.8,0.2-6.5l55.7-29.5c3.1-1.6,7.9-1.6,10.8,0.2l35.5,20.5
			c3,1.7,3.1,4.5,0.2,6.3l-51.7,31.8C513.8,504.1,508.7,504.1,505.6,502.3z"/>
		
			<linearGradient id="SVGID_3_" gradientUnits="userSpaceOnUse" x1="469.4239" y1="491.6904" x2="554.058" y2="442.8269" gradientTransform="matrix(1 0 0 1 5.9476 0)">
			<stop  offset="3.940890e-02" style="stop-color:#FFFFFF"/>
			<stop  offset="0.3172" style="stop-color:#FCFDFE"/>
			<stop  offset="0.5068" style="stop-color:#F3F7FB"/>
			<stop  offset="0.6701" style="stop-color:#E4EDF7"/>
			<stop  offset="0.8186" style="stop-color:#CEDEF0"/>
			<stop  offset="0.9557" style="stop-color:#B3CBE8"/>
			<stop  offset="1" style="stop-color:#A8C4E5"/>
		</linearGradient>
		<path class="st40" d="M505.6,497l-39.4-22.8c-3.2-1.8-3.1-4.8,0.2-6.5l55.7-29.5c3.1-1.6,7.9-1.6,10.8,0.2l35.5,20.5
			c3,1.7,3.1,4.5,0.2,6.3l-51.7,31.8C513.8,498.8,508.7,498.8,505.6,497z"/>
		<g class="st41">
			<polygon class="st24" points="496.8,451.6 545.1,479.7 555.1,473.6 507.3,446 			"/>
		</g>
		<path class="st39" d="M636,338.9l-0.3,0.1h0.1L445.5,228.7l-1.8-1.1c-1.4-0.8-3.2,0.1-3.2,1.9l1.6,0.5h1.1v175
			c0,2,0.7,4.3,2.3,5.2c0,0,192.5,93.6,192.5,91.6l0.2-158v-0.3C638.2,341.7,637.4,339.8,636,338.9z"/>
		<path class="st38" d="M557.4,407.2c24.7-24.9,38.7,45.7,54.3,84.4c7.8,19.4,26.3,18.2,26.3,18.2l0.3-164.9v-0.8
			c0-1-0.1-2.4-0.6-3.3L557.4,407.2z"/>
		
			<linearGradient id="SVGID_4_" gradientUnits="userSpaceOnUse" x1="425.4882" y1="376.4186" x2="623.6244" y2="376.4186" gradientTransform="matrix(1 0 0 1 5.9476 0)">
			<stop  offset="3.940890e-02" style="stop-color:#FFFFFF"/>
			<stop  offset="0.3172" style="stop-color:#FCFDFE"/>
			<stop  offset="0.5068" style="stop-color:#F3F7FB"/>
			<stop  offset="0.6701" style="stop-color:#E4EDF7"/>
			<stop  offset="0.8186" style="stop-color:#CEDEF0"/>
			<stop  offset="0.9557" style="stop-color:#B3CBE8"/>
			<stop  offset="1" style="stop-color:#A8C4E5"/>
		</linearGradient>
		<path class="st42" d="M626.7,516.1L434.3,405.9c-1.6-0.9-2.9-3.1-2.9-4.9l0-162.6c0-1.8,1.3-2.5,2.9-1.6L626.7,347
			c1.6,0.9,2.9,3.1,2.9,4.9l0,162.6C629.5,516.3,628.3,517,626.7,516.1z"/>
		<path class="st24" d="M626.8,493.7L433.7,382.2c-1.5-0.8-2.7-2.9-2.7-4.6l-0.3-140.8c0-1.7,1.2-2.4,2.7-1.6l193.1,111.5
			c1.5,0.8,2.7,2.9,2.7,4.6l0.3,140.8C629.4,493.9,628.3,494.6,626.8,493.7z"/>
		<polygon class="st32" points="619.4,474.7 437.7,369.8 438.1,247.6 619.8,352.6 		"/>
	</g>
	<g>
		<g>
			<path class="st43" d="M575.1,353.2l-98.8-57c-1.4-0.8-2.6-3.1-2.6-5l0,0c0-1.9,1.2-2.8,2.6-2l98.8,57c1.4,0.8,2.6,3.1,2.6,5l0,0
				C577.7,353.2,576.5,354.1,575.1,353.2z"/>
			<path class="st15" d="M576.1,385.1l-79.6-45.9c-1.4-0.8-2.6-3.1-2.6-5l0,0c0-1.9,1.2-2.8,2.6-2l79.6,45.9c1.4,0.8,2.6,3.1,2.6,5
				l0,0C578.7,385.1,577.6,386,576.1,385.1z"/>
			<path class="st43" d="M576.1,402.6l-26.3-15.2c-1.4-0.8-2.6-3.1-2.6-5l0,0c0-1.9,1.2-2.8,2.6-2l26.3,15.2c1.4,0.8,2.6,3.1,2.6,5
				l0,0C578.7,402.5,577.6,403.4,576.1,402.6z"/>
			<path class="st43" d="M510.4,364.7l-12.7-7.4c-1.4-0.8-2.6-3.1-2.6-5l0,0c0-1.9,1.2-2.8,2.6-2l12.7,7.4c1.4,0.8,2.6,3.1,2.6,5
				l0,0C513.1,364.6,511.9,365.5,510.4,364.7z"/>
			<path class="st43" d="M494.5,374l-16.8-9.7c-1.4-0.8-2.6-3.1-2.6-5l0,0c0-1.9,1.2-2.8,2.6-2l16.8,9.7c1.4,0.8,2.6,3.1,2.6,5l0,0
				C497.1,373.9,496,374.8,494.5,374z"/>
			<path class="st15" d="M521.6,407.2l-43.9-25.3c-1.4-0.8-2.6-3.1-2.6-5v0c0-1.9,1.2-2.8,2.6-2l43.9,25.3c1.4,0.8,2.6,3.1,2.6,5
				l0,0C524.2,407.1,523,408,521.6,407.2z"/>
			<path class="st43" d="M575.6,420.8l-68.4-39.5c-1.4-0.8-2.6-3.1-2.6-5l0,0c0-1.9,1.2-2.8,2.6-2l68.4,39.5c1.4,0.8,2.6,3.1,2.6,5
				l0,0C578.2,420.7,577,421.6,575.6,420.8z"/>
			<path class="st43" d="M537.2,380.1l-11-6.4c-1.4-0.8-2.6-3.1-2.6-5l0,0c0-1.9,1.2-2.8,2.6-2l11,6.4c1.4,0.8,2.6,3.1,2.6,5l0,0
				C539.8,380.1,538.6,381,537.2,380.1z"/>
			<path class="st43" d="M524,337.9l-27.4-15.8c-1.4-0.8-2.6-3.1-2.6-5l0,0c0-1.9,1.2-2.8,2.6-2l27.4,15.8c1.4,0.8,2.6,3.1,2.6,5
				l0,0C526.6,337.9,525.4,338.7,524,337.9z"/>
			<path class="st15" d="M541.4,348l-7.7-4.4c-1.4-0.8-2.6-3.1-2.6-5l0,0c0-1.9,1.2-2.8,2.6-2l7.7,4.4c1.4,0.8,2.6,3.1,2.6,5l0,0
				C544,347.9,542.8,348.8,541.4,348z"/>
		</g>
		<polygon class="st44" points="444.2,367.7 560.4,324.9 602.2,348.3 486.6,389.7 		"/>
		<polygon class="st44" points="445.2,358.1 550.9,321.2 527.3,309.1 445.2,338.2 		"/>
	</g>
	<path class="st12" d="M522.7,445.1c0,4.2-2.9,5.8-6.6,3.7c-3.6-2.1-6.6-7.2-6.6-11.3c0-4.2,2.9-5.8,6.6-3.7
		C519.8,435.8,522.7,440.9,522.7,445.1z"/>
</g>
<g>
	<g>
		<path class="st45" d="M301.7,410.4l-0.1,4.4c0,0-0.1,13.2-12.8,5.7c-12.7-7.5-11.4-24-11.4-24S287.4,395.9,301.7,410.4z"/>
		<path class="st11" d="M288.8,420.9c16.5,9.7,16.7-5.8,16.7-5.8l0.1,0.1l-0.2-5.3c-18.1-17.2-30.2-17.1-30.2-17.1
			S272.3,411.2,288.8,420.9z M278.1,397.2c0,0,9.7,0,23.5,13.3l-0.1,3.8c0,0-0.1,11.5-12.4,4.3C276.9,411.4,278.1,397.2,278.1,397.2
			z"/>
		<polygon class="st11" points="311.7,418.4 301.8,413.3 301.6,407.6 311.4,412.7 		"/>
		<path class="st11" d="M275.8,397.3l-1.7-0.9c-1-0.5-1.8-1.9-1.8-3.1l0,0c-0.1-1.2,0.7-1.8,1.6-1.3l1.7,0.9c1,0.5,1.8,1.9,1.8,3.1
			l0,0C277.5,397.2,276.8,397.8,275.8,397.3z"/>
		<path class="st11" d="M339.5,430.4l-1.7-0.9c-1-0.5-1.8-1.9-1.8-3.1l0,0c-0.1-1.2,0.7-1.8,1.6-1.3l1.7,0.9c1,0.5,1.8,1.9,1.8,3.1
			l0,0C341.2,430.3,340.5,430.9,339.5,430.4z"/>
		<g>
			<path class="st45" d="M312.1,416.1l0.5,4.5c0,0,1.3,13.6,13.5,19c12.2,5.4,9.5-12.6,9.5-12.6S325.3,416.2,312.1,416.1z"/>
			<path class="st11" d="M338.3,425.7c0,0-12.7-13-30-14.2l0.2,5.3l0.1,0.1c0,0,1.6,16.4,18,23.8C343.1,448,338.3,425.7,338.3,425.7
				z M326.1,437.8c-12.2-5.5-13.4-17.7-13.4-17.7l-0.4-4.1c13.3,0.7,23.4,11.1,23.4,11.1S338.3,443.4,326.1,437.8z"/>
			<path class="st27" d="M314.9,423.2L314.9,423.2c-0.4-0.5-0.5-1.2-0.2-1.4l3.2-3.2c0.3-0.3,0.8-0.1,1.2,0.5v0
				c0.4,0.5,0.5,1.2,0.2,1.4l-3.2,3.2C315.8,423.9,315.3,423.7,314.9,423.2z"/>
		</g>
		<path class="st27" d="M279.7,404.2L279.7,404.2c-0.4-0.5-0.5-1.2-0.2-1.4l3.2-3.2c0.3-0.3,0.8-0.1,1.2,0.5l0,0
			c0.4,0.5,0.5,1.2,0.2,1.4l-3.2,3.2C280.6,404.9,280.1,404.7,279.7,404.2z"/>
	</g>
	<path class="st17" d="M256,490l8.1-45.8l28.5,17.4l-6.5,41.6C285.6,509.9,254.7,505.4,256,490z"/>
	<path class="st17" d="M276.2,381c0,0-26.6-18.6-29,23.8c-1.7,29.5,15.4,56,39.7,68.8c15.1,8,34.5-0.2,36-14.9
		c4.8-21.3,5.8-41.3-0.5-58.9c1.9-17.7-10.9-12-32.4-14.3L276.2,381z"/>
	<path class="st46" d="M260.3,466.8c-2-2.2-4.1-4.3-6.6-5.8c-9-5.1-26.2-19.2-22.5-50.3c5.4-45.1,45-36.2,70-40.1
		c10.2-1.6,17.5-1.6,27.5,8.3c9.1,9-0.8,27.7-14.5,28.2c-5.5,0.2-3.7,15-5.1,19.9c-2.4,8.8-8.2,12.9-10.7,21.4
		c-2.4,8.1-15.2,19.4-23,20.8C266.2,470.8,262.1,468.9,260.3,466.8z"/>
	<path class="st11" d="M338.8,431.8l-38.5,1.7c-1.4,0.1-2.5-1-2.6-2.4l0,0c-0.1-1.4,1-2.5,2.4-2.6l38.5-1.7c1.4-0.1,2.5,1,2.6,2.4v0
		C341.2,430.5,340.2,431.7,338.8,431.8z"/>
	<path class="st17" d="M305.8,440.1c0.2,7.2-3.7,13.2-8.9,13.3c-0.6,0-1.1,0-1.7-0.1c-4.4-0.9-7.9-6.1-8.1-12.5
		c-0.2-7.2,3.7-13.2,8.9-13.3C301.2,427.2,305.5,432.9,305.8,440.1z"/>
</g>
<path class="st43" d="M305.2,507.9c-31.4-6.2-55,12.6-57.8-33.2h0c5-2.6,10.8-1,13.4,3.6c4.6,8.1,15.7,13.6,28.8,12.6
	c3.9-0.3,7.5,1.6,9.2,5L305.2,507.9z"/>
<g>
	<g>
		<g>
			<path class="st47" d="M561.1,662l-59.4-34.3c-0.7-0.4-0.7-1.5,0-1.9l81.5-47c0.3-0.2,0.8-0.2,1.1,0l59.4,34.3
				c0.7,0.4,0.7,1.5,0,1.9l-81.5,47C561.9,662.2,561.5,662.2,561.1,662z"/>
			<rect x="501.2" y="624" class="st47" width="2" height="3"/>
			<rect x="642.2" y="612" class="st47" width="3" height="2"/>
		</g>
		<path class="st48" d="M561.1,660l-59.4-34.3c-0.7-0.4-0.7-1.5,0-1.9l81.5-47c0.3-0.2,0.8-0.2,1.1,0l59.4,34.3
			c0.7,0.4,0.7,1.5,0,1.9l-81.5,47C561.9,660.2,561.5,660.2,561.1,660z"/>
	</g>
	<g>
		<g>
			<path class="st47" d="M620.5,696.2l-59.4-34.3c-0.7-0.4-0.7-1.5,0-1.9l81.5-47c0.3-0.2,0.8-0.2,1.1,0l59.4,34.3
				c0.7,0.4,0.7,1.5,0,1.9l-81.5,47C621.3,696.4,620.8,696.4,620.5,696.2z"/>
			<rect x="561.2" y="659" class="st47" width="2" height="2"/>
			<rect x="701.2" y="646" class="st47" width="3" height="1"/>
		</g>
		<path class="st48" d="M620.5,694.2l-59.4-34.3c-0.7-0.4-0.7-1.5,0-1.9l81.5-47c0.3-0.2,0.8-0.2,1.1,0l59.4,34.3
			c0.7,0.4,0.7,1.5,0,1.9l-81.5,47C621.3,694.4,620.8,694.4,620.5,694.2z"/>
	</g>
	<path class="st47" d="M522.4,631.4l38.7,25l23.5-18.7C584.6,637.6,539,619,522.4,631.4z"/>
	<linearGradient id="SVGID_5_" gradientUnits="userSpaceOnUse" x1="586.5299" y1="641.161" x2="559.1" y2="593.651">
		<stop  offset="2.000000e-08" style="stop-color:#9FB0BF"/>
		<stop  offset="0.2542" style="stop-color:#A3B3C2"/>
		<stop  offset="0.4956" style="stop-color:#AEBDCB"/>
		<stop  offset="0.732" style="stop-color:#C1CEDB"/>
		<stop  offset="0.964" style="stop-color:#DCE6F0"/>
		<stop  offset="1" style="stop-color:#E1EAF4"/>
	</linearGradient>
	<path class="st49" d="M561.4,655.7c-3.3-12.6-26.7-17.8-53.3-30.8c-0.9-0.5-0.7-1.4,0.2-1.9l72.3-41.7c1-0.6,2.5-0.6,3.3-0.1
		c33.1,9.8,53.7,20,53.3,30.8L561.4,655.7z"/>
	
		<linearGradient id="SVGID_6_" gradientUnits="userSpaceOnUse" x1="601.8082" y1="636.476" x2="572.33" y2="585.4182" gradientTransform="matrix(0.8824 4.120000e-02 -6.790000e-02 1.0238 100.58 -35.8565)">
		<stop  offset="2.000000e-08" style="stop-color:#9FB0BF"/>
		<stop  offset="2.195468e-02" style="stop-color:#A9B8C6"/>
		<stop  offset="9.211858e-02" style="stop-color:#C4CED7"/>
		<stop  offset="0.1727" style="stop-color:#DAE0E6"/>
		<stop  offset="0.2668" style="stop-color:#EBEEF1"/>
		<stop  offset="0.3832" style="stop-color:#F6F8F9"/>
		<stop  offset="0.5466" style="stop-color:#FDFDFE"/>
		<stop  offset="1" style="stop-color:#FFFFFF"/>
	</linearGradient>
	<path class="st50" d="M561.4,655.7c2.4-14.7-21-22.2-44.8-37.4c-0.8-0.6-0.6-1.5,0.4-2.1l69.9-41.7c1-0.6,2.3-0.6,3.1,0
		c30,12,48.4,25.3,47.2,36.9L561.4,655.7z"/>
	<g>
		<path class="st51" d="M619.5,596.3l-25.6-16.4c-0.3-0.2-0.3-0.5,0.1-0.8l0,0c0.4-0.2,1-0.2,1.3,0l25.6,16.4
			c0.3,0.2,0.3,0.5-0.1,0.8l0,0C620.4,596.5,619.8,596.5,619.5,596.3z"/>
		<path class="st51" d="M611.1,601.7l-25.6-16.4c-0.3-0.2-0.3-0.5,0.1-0.8l0,0c0.4-0.2,1-0.2,1.3,0l25.6,16.4
			c0.3,0.2,0.3,0.5-0.1,0.8l0,0C612,601.9,611.4,601.9,611.1,601.7z"/>
		<path class="st51" d="M602.7,607.2l-25.6-16.4c-0.3-0.2-0.3-0.5,0.1-0.8l0,0c0.4-0.2,1-0.2,1.3,0l25.6,16.4
			c0.3,0.2,0.3,0.5-0.1,0.8l0,0C603.6,607.4,603,607.4,602.7,607.2z"/>
		<path class="st51" d="M594.3,612.6l-25.6-16.4c-0.3-0.2-0.3-0.5,0.1-0.8l0,0c0.4-0.2,1-0.2,1.3,0l25.6,16.4
			c0.3,0.2,0.3,0.5-0.1,0.8l0,0C595.2,612.8,594.6,612.8,594.3,612.6z"/>
		<path class="st51" d="M585.9,618l-25.6-16.4c-0.3-0.2-0.3-0.5,0.1-0.8v0c0.4-0.2,1-0.2,1.3,0l25.6,16.4c0.3,0.2,0.3,0.5-0.1,0.8
			l0,0C586.8,618.2,586.2,618.2,585.9,618z"/>
		<path class="st51" d="M577.3,625.5l-25.6-16.4c-0.3-0.2-0.3-0.5,0.1-0.8l0,0c0.4-0.2,1-0.2,1.3,0l25.6,16.4
			c0.3,0.2,0.3,0.5-0.1,0.8l0,0C578.2,625.7,577.6,625.7,577.3,625.5z"/>
		<path class="st51" d="M568.9,631l-25.6-16.4c-0.3-0.2-0.3-0.5,0.1-0.8l0,0c0.4-0.2,1-0.2,1.3,0l25.6,16.4c0.3,0.2,0.3,0.5-0.1,0.8
			l0,0C569.8,631.2,569.2,631.2,568.9,631z"/>
		<path class="st51" d="M560.5,636.4L534.8,620c-0.3-0.2-0.3-0.5,0.1-0.8l0,0c0.4-0.2,1-0.2,1.3,0l25.6,16.4
			c0.3,0.2,0.3,0.5-0.1,0.8l0,0C561.4,636.6,560.8,636.6,560.5,636.4z"/>
	</g>
	<path class="st47" d="M561.1,656.3l31.5,15.3C592.6,671.7,570.4,645.8,561.1,656.3z"/>
	<path class="st16" d="M561.4,655.7c0,0,7.3-2.7,13.2,2.2c5.9,4.9,43.5,33.2,43.5,33.2l76.5-43.7c0,0-40.9-39.6-57.4-35.4
		L561.4,655.7z"/>
	<path class="st51" d="M671.2,636.7l-25.3-17c-0.3-0.2-0.3-0.6,0.1-0.7l0,0c0.4-0.2,1-0.2,1.3,0l25.3,17c0.3,0.2,0.3,0.6-0.1,0.7
		l0,0C672.1,636.9,671.5,636.9,671.2,636.7z"/>
	<path class="st51" d="M662.6,641.9l-25.3-17c-0.3-0.2-0.3-0.6,0.1-0.7l0,0c0.4-0.2,1-0.2,1.3,0l25.3,17c0.3,0.2,0.3,0.6-0.1,0.7
		l0,0C663.6,642.2,663,642.2,662.6,641.9z"/>
	<path class="st51" d="M654.1,647.2l-25.3-17c-0.3-0.2-0.3-0.6,0.1-0.7l0,0c0.4-0.2,1-0.2,1.3,0l25.3,17c0.3,0.2,0.3,0.6-0.1,0.7
		l0,0C655,647.4,654.4,647.4,654.1,647.2z"/>
	<path class="st51" d="M645.6,652.4l-25.3-17c-0.3-0.2-0.3-0.6,0.1-0.7l0,0c0.4-0.2,1-0.2,1.3,0l25.3,17c0.3,0.2,0.3,0.6-0.1,0.7
		l0,0C646.5,652.7,645.9,652.6,645.6,652.4z"/>
	<path class="st51" d="M637.1,657.7l-25.3-17c-0.3-0.2-0.3-0.6,0.1-0.7l0,0c0.4-0.2,1-0.2,1.3,0l25.3,17c0.3,0.2,0.3,0.6-0.1,0.7v0
		C638,657.9,637.4,657.9,637.1,657.7z"/>
	<path class="st51" d="M628.3,665L603,648c-0.3-0.2-0.3-0.6,0.1-0.7l0,0c0.4-0.2,1-0.2,1.3,0l25.3,17c0.3,0.2,0.3,0.6-0.1,0.7l0,0
		C629.2,665.2,628.6,665.2,628.3,665z"/>
	<path class="st51" d="M619.8,670.2l-25.3-17c-0.3-0.2-0.3-0.6,0.1-0.7l0,0c0.4-0.2,1-0.2,1.3,0l25.3,17c0.3,0.2,0.3,0.6-0.1,0.7
		l0,0C620.7,670.5,620.1,670.4,619.8,670.2z"/>
	<path class="st51" d="M611.2,675.5l-25.3-17c-0.3-0.2-0.3-0.6,0.1-0.7l0,0c0.4-0.2,1-0.2,1.3,0l25.3,17c0.3,0.2,0.3,0.6-0.1,0.7
		l0,0C612.1,675.7,611.6,675.7,611.2,675.5z"/>
	<path class="st19" d="M664.7,622.8c-8.8,7.8-32.6,26.5-45.2,36.3c-0.6,0.5-0.2,1.4,0.5,1.4l9.4-0.7c0.5,0,1,0.5,0.8,1l-2.1,6.5
		c-0.2,0.7,0.6,1.3,1.2,0.9c5.3-3.8,19.7-19.4,40.5-39.9c1.7-1.7,1.4-4.5-0.6-5.8l0,0C667.8,621.5,665.9,621.6,664.7,622.8z"/>
</g>
<g>
	<path class="st19" d="M763.5,361.2L706.2,328c-2.4-1.4-4.4-1.4-6-0.3l0,0l-9.7,5.5c0,0,3.7,5.7,6.7,12.5v51.8
		c0,6.6,4,14.2,8.9,17.1l46.7,27c4.4,7.3,7.3,12.1,7.3,12.1l9-5.2v0c2-0.9,3-3.6,3-7.4v-62.7C772.2,371.7,768.4,364,763.5,361.2z"/>
	<path class="st18" d="M753.8,453.4l-57.5-33.2c-4.9-2.8-8.9-10.5-8.9-17.1v-62.7c0-6.6,4-9.6,8.9-6.7l57.5,33.2
		c4.9,2.8,8.9,10.5,8.9,17.1v62.7C762.7,453.3,758.7,456.3,753.8,453.4z"/>
	<path class="st52" d="M746.2,456.7l-57.5-33.2c-4.9-2.8-8.9-10.5-8.9-17.1v-62.7c0-6.6,4-9.6,8.9-6.7l57.5,33.2
		c4.9,2.8,8.9,10.5,8.9,17.1V450C755.2,456.6,751.2,459.6,746.2,456.7z"/>
	<g>
		<g>
			<polygon class="st16" points="709.2,405.3 694,379 710.6,369.5 713.8,375.1 702.8,381.4 714.8,402 			"/>
		</g>
		<g>
			<polygon class="st16" points="739.4,421.4 736.2,415.8 747,409.6 734.8,388.7 740.4,385.4 755.9,412 			"/>
		</g>
		<g>
			
				<rect x="703.8" y="393" transform="matrix(0.2613 -0.9652 0.9652 0.2613 153.5317 993.1051)" class="st16" width="43.6" height="6.5"/>
		</g>
	</g>
</g>
<g>
	<path class="st53" d="M657.3,187.9l-57.4-33.2c-2.4-1.4-4.5-1.4-6-0.3l0,0l-9.5,5.5c0,0,2.9,5.7,6.9,12.5v51.8
		c0,6.6,3.8,14.2,8.7,17.1l46.6,27c4.4,7.3,7.5,12.1,7.5,12.1l9.2-5.2v0c1-0.9,3-3.6,3-7.4V205C666.2,198.4,662.2,190.8,657.3,187.9
		z"/>
	<path class="st37" d="M647.4,280.2L589.8,247c-4.9-2.8-8.9-10.5-8.9-17.1v-62.7c0-6.6,4-9.6,8.9-6.7l57.5,33.2
		c4.9,2.8,8.9,10.5,8.9,17.1v62.7C656.3,280,652.3,283,647.4,280.2z"/>
	<path class="st54" d="M637.9,282.9l-57.5-33.2c-4.9-2.8-8.9-10.5-8.9-17.1V170c0-6.6,4-9.6,8.9-6.7l57.5,33.2
		c4.9,2.8,8.9,10.5,8.9,17.1v62.7C646.8,282.8,642.9,285.8,637.9,282.9z"/>
	<path class="st16" d="M641,226.4L641,226.4c-2.8-1.6-4.2-6.3-2.2-7.5l0,0c2.3-1.3,2.3-5.5,0-9.4l-1.2-2c-2.3-3.9-5.9-6-8.2-4.7h0
		c-2,1.1-5.4-2.4-5.4-5.7l0,0c0-3.7-2.6-8.1-5.8-10l-1.6-0.9c-3.2-1.8-5.8-0.4-5.8,3.3v0c0,3.2-3.4,2.9-5.4-0.6l0,0
		c-2.3-3.9-5.9-6-8.2-4.7l-1.2,0.7c-2.3,1.3-2.3,5.5,0,9.4l0,0c2,3.4,0.6,6.5-2.2,4.9l0,0c-3.2-1.8-5.8-0.4-5.8,3.3v1.9
		c0,3.7,2.6,8.1,5.8,10c2.8,1.6,4.2,6.3,2.2,7.5l0,0c-2.3,1.3-2.3,5.5,0,9.4l1.2,2c2.3,3.9,5.9,6,8.2,4.7l0,0c2-1.1,5.4,2.4,5.4,5.7
		l0,0c0,3.7,2.6,8.1,5.8,10l1.6,0.9c3.2,1.8,5.8,0.4,5.8-3.3c0-3.2,3.4-2.9,5.4,0.6c2.3,3.9,5.9,6,8.2,4.7l1.2-0.7
		c2.3-1.3,2.3-5.5,0-9.4l0,0c-2-3.4-0.6-6.5,2.2-4.9l0,0c3.2,1.8,5.8,0.4,5.8-3.3v-1.9C646.7,232.7,644.2,228.2,641,226.4z
		 M617.4,236.8c-7.9-4.6-14.3-15.6-14.3-24.7c0-9.1,6.4-12.7,14.3-8.2s14.3,15.6,14.3,24.7S625.3,241.4,617.4,236.8z"/>
</g>
<g>
	<path class="st55" d="M763.1,243.2L705.6,210c-2.4-1.4-4.5-1.4-6.1-0.3l0,0l-9.8,5.5c0,0,3.5,5.7,6.5,12.5v51.8
		c0,6.6,4.1,14.2,9,17.1l46.8,27c4.4,7.3,7.2,12.1,7.2,12.1l9-5.2v0c2-0.9,4-3.6,4-7.4v-62.7C772.2,253.7,768,246,763.1,243.2z"/>
	<path class="st56" d="M753,335.5l-57.5-33.2c-4.9-2.8-8.9-10.5-8.9-17.1v-62.7c0-6.6,4-9.6,8.9-6.7L753,249
		c4.9,2.8,8.9,10.5,8.9,17.1v62.7C761.9,335.3,757.9,338.3,753,335.5z"/>
	<path class="st57" d="M744.9,340.7l-57.5-33.2c-4.9-2.8-8.9-10.5-8.9-17.1v-62.7c0-6.6,4-9.6,8.9-6.7l57.5,33.2
		c4.9,2.8,8.9,10.5,8.9,17.1V334C753.8,340.5,749.8,343.6,744.9,340.7z"/>
	<g>
		<path class="st16" d="M730.2,300.6l1,0.6c2.2,1.3,2.8,0.7,2.8-2.6c0-3.3-0.2-6.3-0.2-10.1c0-4.6,1.3-5.7,3.9-4.9v-0.2
			c-2.7-2.3-3.9-4.8-3.9-9.4c0-3.7,0.2-6.5,0.2-9.8c0-3.4-0.6-4.6-2.8-5.9l-1-0.6v-4.8l3.3,1.9c4.7,2.7,6.8,6,6.8,12.6
			c0,4.3-0.5,6.3-0.5,10.1c0,2.1,1.1,5,4.6,7.2v5.2c-3.5-1.9-4.6-0.3-4.6,1.9c0,3.8,0.5,6.4,0.5,10.7c0,6.6-2.1,7.4-6.8,4.7
			l-3.3-1.9V300.6z"/>
	</g>
	<g>
		<path class="st16" d="M713.6,295.8l-3.3-1.9c-4.7-2.7-6.8-6-6.8-12.6c0-4.3,0.5-6.3,0.5-10.1c0-2.1-1.1-5-4.6-7.2v-5.2
			c3.5,1.9,4.6,0.3,4.6-1.9c0-3.8-0.5-6.4-0.5-10.7c0-6.6,2.1-7.4,6.8-4.7l3.3,1.9v4.8l-1-0.6c-2.2-1.3-2.8-0.7-2.8,2.6
			c0,3.3,0.2,6.3,0.2,10.1c0,4.6-1.3,5.7-3.9,4.9v0.2c2.7,2.3,3.9,4.8,3.9,9.4c0,3.7-0.2,6.5-0.2,9.8c0,3.4,0.6,4.6,2.8,5.9l1,0.6
			V295.8z"/>
	</g>
</g>
</svg>
